<?xml version="1.0" encoding="UTF-8"?>
<svg xmlns="http://www.w3.org/2000/svg" viewBox="0 0 409.04 312.24">
  <defs>
    <style>
      .cls-1 {
        stroke: #050304;
      }

      .cls-1, .cls-2, .cls-3 {
        fill: #f5f5f5;
      }

      .cls-1, .cls-2, .cls-3, .cls-4 {
        stroke-miterlimit: 10;
      }

      .cls-1, .cls-3, .cls-4 {
        stroke-width: 10px;
      }

      .cls-5 {
        fill: #15912f;
      }

      .cls-2 {
        stroke-width: 7px;
      }

      .cls-2, .cls-3, .cls-4 {
        stroke: #000;
      }

      .cls-4 {
        fill: none;
      }
    </style>
  </defs>
  <g id="Layer_1" data-name="Layer 1">
    <rect class="cls-3" x="260.48" y="103.38" width="143.56" height="169.72" rx="24.23" ry="24.23"/>
    <ellipse class="cls-3" cx="332.26" cy="61.83" rx="58.4" ry="56.83"/>
  </g>
  <g id="Layer_6" data-name="Layer 6">
    <rect class="cls-3" x="5" y="103.38" width="143.56" height="169.72" rx="24.23" ry="24.23"/>
    <ellipse class="cls-3" cx="76.78" cy="61.83" rx="58.4" ry="56.83"/>
  </g>
  <g id="Flask_BG_Fill" data-name="Flask BG Fill">
    <path class="cls-3" d="M170.05,57.22v72.26c0,6.21-1.68,12.3-4.87,17.64l-64.29,107.8c-6.04,10.14-6.49,22.62-1.17,33.15h0c5.93,11.75,18.05,19.17,31.3,19.17h144.77c13.26,0,25.37-7.42,31.3-19.17h0c5.31-10.53,4.87-23.01-1.17-33.15l-64.29-107.8c-3.19-5.34-4.87-11.44-4.87-17.64V57.22"/>
  </g>
  <g id="Layer_4" data-name="Layer 4">
    <polyline class="cls-5" points="141.94 192.74 185.67 198.05 211.87 210.16 239.58 213.34 269.37 202.69 292.36 232.18 308.1 259.25 309.8 280.69 294.73 301.72 262.65 307.24 141.94 307.24 111.36 301.24 97.19 281.38 100.89 254.92 132.04 202.69"/>
    <path class="cls-4" d="M170.05,57.22v72.26c0,6.21-1.68,12.3-4.87,17.64-16.25,27.24-32.5,54.49-48.74,81.73-5.18,8.69-10.36,17.38-15.55,26.07-1.59,2.66-4.56,8.47-4.85,16.43-.2,5.7,1.02,11.46,3.67,16.72h0c5.93,11.75,18.05,19.17,31.3,19.17h144.77c13.26,0,25.37-7.42,31.3-19.17h0c5.31-10.53,4.87-23.01-1.17-33.15l-64.29-107.8c-3.19-5.34-4.87-11.44-4.87-17.64V57.22"/>
    <path class="cls-2" d="M275.6,199.27c-29.45,17.14-50.11,15.68-63.73,10.89-12.74-4.48-22.03-12.83-41.53-16.53-14.23-2.7-26.26-1.47-34.21,0"/>
  </g>
  <g id="Layer_3" data-name="Layer 3">
    <rect class="cls-1" x="161.14" y="41" width="84.52" height="32.45" rx="13.5" ry="13.5"/>
  </g>
</svg>